<?xml version="1.0" encoding="utf-8"?>
<!-- Generator: Adobe Illustrator 28.0.0, SVG Export Plug-In . SVG Version: 6.00 Build 0)  -->
<svg version="1.1" id="Layer_1" xmlns="http://www.w3.org/2000/svg" xmlns:xlink="http://www.w3.org/1999/xlink" x="0px" y="0px"
	 viewBox="0 0 1000 500" style="enable-background:new 0 0 1000 500;" xml:space="preserve">
<style type="text/css">
	.st0{fill:#FFFFFF;}
	.st1{fill:#5B3AC1;}
	.st2{fill:#B6EF80;}
	.st3{fill:#18023D;}
</style>
<g>
	<g>
		<g>
			<path class="st3" d="M503.1,265.6c-5.7,19.2-23.8,32.5-45.4,32.5c-28,0-48.9-21.2-48.9-48.7c0-27.5,20.8-48.7,48.9-48.7
				c21.6,0,39.7,13.3,45.4,32.5c1.1,3.1-0.7,5.2-3.9,5.2H479c-2.4,0-4.1-1.1-5.5-3.1c-3.3-4.6-9-7.2-15.7-7.2
				c-12,0-21.2,8.7-21.2,21.4c0,12.7,9.2,21.4,21.2,21.4c6.6,0,12.4-2.6,15.7-7c1.5-2.2,3-3.3,5.5-3.3h20.3
				C502.4,260.5,504.2,262.5,503.1,265.6z"/>
			<path class="st3" d="M596.1,207.9v83c0,2.9-1.7,4.6-4.6,4.6H573c-3,0-4.6-1.7-4.6-4.6v-3.8c-4.3,6.4-12.2,11-24,11
				c-17.2,0-29.5-13.3-29.5-36.3v-53.9c0-3,1.7-4.6,4.6-4.6H538c3,0,4.6,1.7,4.6,4.6v51.5c0,9.2,5.3,13.3,12.4,13.3
				c8.3,0,13.5-4.6,13.5-15.5v-49.2c0-3,1.7-4.6,4.6-4.6h18.4C594.4,203.3,596.1,205,596.1,207.9z"/>
			<path class="st3" d="M739.9,233.4v57.5c0,3-1.7,4.6-4.6,4.6h-18.4c-3,0-4.6-1.7-4.6-4.6v-55.1c0-7.4-4.4-9.6-9.6-9.6
				c-5.5,0-10.7,2.8-10.7,11.8v52.9c0,3-1.7,4.6-4.6,4.6h-18.4c-3,0-4.6-1.7-4.6-4.6v-55.1c0-7.4-4.4-9.6-9.6-9.6
				c-5.5,0-10.7,2.8-10.7,11.8v52.9c0,3-1.7,4.6-4.6,4.6H621c-3,0-4.6-1.7-4.6-4.6v-83c0-3,1.7-4.6,4.6-4.6h18.4
				c3,0,4.6,1.7,4.6,4.6v3.8c4.2-6.4,11.6-11,21.2-11c9.3,0,16.7,3.8,21.4,11c6-6.4,13.7-11,24.7-11
				C729.4,200.7,739.9,212.2,739.9,233.4z"/>
			<path class="st3" d="M857.1,249.4c0,27.5-19.9,48.7-44.1,48.7c-12.3,0-21.3-4.2-27.5-11.2v4c0,2.9-1.7,4.6-4.6,4.6h-18.4
				c-2.9,0-4.6-1.7-4.6-4.6V171c0-3,1.7-4.6,4.6-4.6h18.4c2.9,0,4.6,1.7,4.6,4.6v40.9c6.2-7,15.1-11.2,27.5-11.2
				C837.2,200.7,857.1,221.9,857.1,249.4z M829.4,249.4c0-13.8-9.2-22.5-21.9-22.5c-12.7,0-21.9,8.7-21.9,22.5
				c0,13.8,9.2,22.5,21.9,22.5C820.2,271.9,829.4,263.2,829.4,249.4z"/>
			<path class="st3" d="M872.8,187.6V171c0-3,1.7-4.6,4.6-4.6h18.4c3,0,4.6,1.7,4.6,4.6v16.6c0,3-1.7,4.6-4.6,4.6h-18.4
				C874.4,192.2,872.8,190.6,872.8,187.6z M872.8,290.9v-83c0-3,1.7-4.6,4.6-4.6h18.4c3,0,4.6,1.7,4.6,4.6v83c0,2.9-1.7,4.6-4.6,4.6
				h-18.4C874.4,295.5,872.8,293.9,872.8,290.9z"/>
		</g>
	</g>
	<path class="st3" d="M262,247.8c0.5,0,1,0,1.5-0.1l48.6-10c2.9-0.6,5.1-2.8,5.6-5.7l9.1-47.1c0.1-0.8,0.1-1.5,0-2.3
		c0.3-2-0.2-4.1-1.6-5.7l-21.1-24.7c-25.6-28-66.3-44.7-108.7-44.7c-78.7,0-142.7,64-142.7,142.7c0,6.8,0.5,13.4,1.4,19.9
		c0,0.3,0,0.5,0.1,0.8c10.1,68.9,69.5,122,141.2,122c60.9,0,88.4-31.9,126.5-76l1.5-1.8c2.1-2.4,2.3-5.8,0.7-8.4l-9.8-47.6
		c-0.6-3.1-3.2-5.4-6.3-5.7l-46.3-5.2c0-0.1,0-0.1,0.1-0.2C261.9,247.7,261.9,247.8,262,247.8z M304.4,224.5l-33.5,6.9l5.1-30.6
		l34.5-7.8L304.4,224.5z M195.3,121.8c38.5,0,75.1,15,97.9,39.9l14.6,17.1l-35.9,8.1c-23.4-26.2-56.9-41.2-92.1-41.2
		c-40.7,0-76.9,19.1-99.9,48.6C100.7,151.4,144.6,121.8,195.3,121.8z M293.9,266.1l-24.6,31.3c-23.2,26.8-42.9,36.7-72.6,36.7
		c-45.9,0-79.2-30-79.2-71.2c0-27.8,19-48.9,47.2-53.9c-11.1,9-18.4,23-18.4,41.5c0,31,24.2,52.9,51.2,52.9
		c30.4,0,48.9-24.8,57.9-41.5L293.9,266.1z M215.8,272V228c0-5,4-6.1,9.6-4.1c6.8,2.4,17.1,15.3,17.1,15.3
		c4.9,5.7,4.3,13.9-0.1,19.9c0,0-10.2,14.3-16.9,16.9C220.4,277.9,215.8,277,215.8,272z M255.9,233.2
		c-18.9-28.1-47.7-41.8-83.5-39.7c-40.2,2.3-69.4,31.5-69.4,69.4c0,49.7,39.4,85.7,93.7,85.7c33.7,0,57.9-12.1,83.8-42l22.9-29.2
		l6.4,31.1c-36.3,42-60.7,69.7-114.4,69.7c-48.3,0-90.4-26.9-112.3-66.4c-15.9-28.7-17.5-63.5-1.9-92.4
		c18.8-34.9,56.5-59.4,98.7-59.4c31.3,0,61.1,13.5,81.8,36.9c0.1,0.1,0.1,0.1,0.2,0.2L255.9,233.2z"/>
</g>
</svg>
